<svg xmlns="http://www.w3.org/2000/svg" viewBox="0 0 64 64">
  <rect width="64" height="64" rx="12" fill="#1E3A8A"/>
  <!-- left o ring -->
  <circle cx="16" cy="24" r="2.5" fill="#93C5FD"/>
  <circle cx="22" cy="20" r="2.5" fill="#93C5FD"/>
  <circle cx="28" cy="20" r="2.5" fill="#93C5FD"/>
  <circle cx="34" cy="24" r="2.5" fill="#93C5FD"/>
  <circle cx="16" cy="30" r="2.5" fill="#93C5FD"/>
  <circle cx="34" cy="30" r="2.5" fill="#93C5FD"/>
  <circle cx="16" cy="36" r="2.5" fill="#93C5FD"/>
  <circle cx="34" cy="36" r="2.5" fill="#93C5FD"/>
  <circle cx="16" cy="42" r="2.5" fill="#93C5FD"/>
  <circle cx="22" cy="46" r="2.5" fill="#93C5FD"/>
  <circle cx="28" cy="46" r="2.5" fill="#93C5FD"/>
  <circle cx="34" cy="42" r="2.5" fill="#93C5FD"/>
  <!-- left eye -->
  <circle cx="25" cy="33" r="4" fill="white"/>
  <!-- right o ring -->
  <circle cx="42" cy="24" r="2.5" fill="#93C5FD"/>
  <circle cx="48" cy="20" r="2.5" fill="#93C5FD"/>
  <circle cx="54" cy="20" r="2.5" fill="#93C5FD"/>
  <circle cx="60" cy="24" r="2.5" fill="#93C5FD"/>
  <circle cx="42" cy="30" r="2.5" fill="#93C5FD"/>
  <circle cx="60" cy="30" r="2.5" fill="#93C5FD"/>
  <circle cx="42" cy="36" r="2.5" fill="#93C5FD"/>
  <circle cx="60" cy="36" r="2.5" fill="#93C5FD"/>
  <circle cx="42" cy="42" r="2.5" fill="#93C5FD"/>
  <circle cx="48" cy="46" r="2.5" fill="#93C5FD"/>
  <circle cx="54" cy="46" r="2.5" fill="#93C5FD"/>
  <circle cx="60" cy="42" r="2.5" fill="#93C5FD"/>
  <!-- right eye -->
  <circle cx="51" cy="33" r="4" fill="white"/>
</svg>
